<?xml version="1.0" standalone="no"?>
<!DOCTYPE svg PUBLIC "-//W3C//DTD SVG 20010904//EN"
 "http://www.w3.org/TR/2001/REC-SVG-20010904/DTD/svg10.dtd">
<svg version="1.0" xmlns="http://www.w3.org/2000/svg"
 width="256.000000pt" height="256.000000pt" viewBox="0 0 256.000000 256.000000"
 preserveAspectRatio="xMidYMid meet">
<metadata>
Created by potrace 1.11, written by Peter Selinger 2001-2013
</metadata>
<g transform="translate(0.000000,256.000000) scale(0.100000,-0.100000)"
fill="#000000" stroke="none">
<path d="M1297 2204 c-1 -2 -20 -5 -42 -8 -74 -10 -110 -18 -127 -27 -10 -5
-18 -7 -18 -4 0 3 -13 -1 -30 -10 -16 -8 -33 -16 -37 -16 -27 -2 -137 -73
-188 -120 -114 -108 -172 -266 -154 -424 11 -87 12 -91 32 -139 9 -21 17 -42
17 -46 0 -5 3 -10 8 -12 4 -2 19 -20 35 -40 29 -40 124 -110 196 -147 73 -37
203 -76 421 -126 8 -2 35 -8 60 -14 106 -24 248 -76 262 -96 4 -5 8 -7 8 -3 0
4 15 -7 33 -25 46 -45 60 -86 55 -156 -8 -119 -90 -191 -258 -229 -61 -13
-263 -3 -292 15 -5 2 -17 6 -29 8 -56 11 -199 127 -199 162 0 7 -4 13 -9 13
-10 0 -37 69 -33 83 1 4 -3 7 -8 7 -6 0 -10 11 -10 24 0 13 -6 26 -12 28 -23
8 -343 3 -341 -5 1 -4 7 -40 13 -80 33 -194 146 -364 305 -458 59 -35 155 -77
191 -84 11 -2 20 -4 22 -5 3 -3 10 -5 62 -15 137 -25 362 -23 436 5 12 5 24 7
26 4 3 -2 21 2 40 10 20 9 38 12 42 9 3 -4 6 -1 6 5 0 7 3 11 8 10 4 -1 21 5
38 15 17 9 34 13 38 10 3 -4 6 -1 6 5 0 7 5 12 11 12 18 0 95 57 148 111 46
46 110 142 115 172 1 7 7 21 13 32 6 11 11 23 12 28 0 4 3 35 7 70 4 34 7 80
6 102 -2 43 -9 110 -12 110 -1 0 -3 8 -5 18 -9 50 -69 149 -121 200 -31 32
-60 57 -64 57 -5 0 -15 6 -22 13 -27 24 -218 113 -218 101 0 -2 -8 0 -18 5
-19 10 -143 45 -192 55 -14 2 -68 14 -120 26 -52 13 -107 25 -123 28 -15 2
-30 8 -33 13 -3 5 -12 9 -19 9 -27 0 -120 49 -147 77 -27 28 -53 115 -39 129
6 6 7 11 10 37 2 24 63 88 103 108 127 65 356 62 473 -6 39 -23 109 -96 105
-111 -1 -3 3 -10 8 -13 5 -3 16 -29 26 -56 l16 -50 163 1 c203 2 190 0 182 23
-3 10 -8 32 -10 47 -6 36 -10 53 -19 79 -5 11 -14 37 -22 58 -34 90 -116 191
-209 256 -57 40 -178 96 -228 105 -15 2 -30 7 -34 9 -22 13 -305 32 -316 21z"/>
</g>
</svg>
